<svg xmlns="http://www.w3.org/2000/svg" width="29" height="32" viewBox="0 0 29 32">
    <g fill="none" fill-rule="evenodd">
        <path fill="#FFF" d="M-96-165h1280v720H-96z"/>
        <path fill="#ED2130" d="M23.594 12.892l-.817.315a.467.467 0 0 1-.605-.276l-.312-.828a.478.478 0 0 1 .273-.615l.817-.315a.467.467 0 0 1 .605.276l.311.828a.48.48 0 0 1-.272.615m-1.136 1.518l-1.689 7.79c-.065.306-.398.559-.704.523-.39-.046-1.623-.362-1.623-.362-.477-.16-1.063-.364-1.063-.811v-1.296l-2.57 2.153a.709.709 0 0 1-.309.14.711.711 0 0 1-.31-.14l-2.569-2.153v1.296c0 .447-.586.651-1.063.81 0 0-1.232.317-1.623.363-.305.036-.639-.217-.704-.522L6.544 14.41c-.119-.558.452-.997.943-.715l2.417 1.803a.637.637 0 0 0 .624.008l3.67-2.31a.64.64 0 0 1 .303-.077c.104 0 .208.026.303.078l3.67 2.31c.197.106.43.103.625-.009l2.417-1.803c.49-.282 1.061.157.943.715M6.223 13.207l-.816-.315a.48.48 0 0 1-.273-.615l.311-.828a.467.467 0 0 1 .606-.276l.816.315a.478.478 0 0 1 .273.615l-.311.828a.468.468 0 0 1-.606.276m6.983-2.822l.976-.988a.461.461 0 0 1 .318-.14c.116.004.231.05.319.14l.975.988a.481.481 0 0 1 0 .674l-.975.989a.463.463 0 0 1-.319.14.463.463 0 0 1-.319-.14l-.975-.989a.482.482 0 0 1 0-.674m15.442-.495a4.34 4.34 0 0 0-1.587-2.886 51.78 51.78 0 0 0-4.945-3.514 51.277 51.277 0 0 0-5.75-3.107A4.166 4.166 0 0 0 14.5.002a4.165 4.165 0 0 0-1.866.38 51.234 51.234 0 0 0-5.75 3.108A51.78 51.78 0 0 0 1.94 7.004 4.338 4.338 0 0 0 .352 9.89a53.174 53.174 0 0 0 .019 12.375 4.337 4.337 0 0 0 1.65 2.925 51.57 51.57 0 0 0 5.139 3.493 51.071 51.071 0 0 0 5.813 2.975A4.157 4.157 0 0 0 14.5 32a4.157 4.157 0 0 0 1.528-.342 51.071 51.071 0 0 0 5.813-2.975 51.57 51.57 0 0 0 5.138-3.493 4.337 4.337 0 0 0 1.651-2.925 53.174 53.174 0 0 0 .018-12.375"/>
    </g>
</svg>
