<svg xmlns="http://www.w3.org/2000/svg" width="24" height="24" viewBox="0 0 24 24">
    <g fill="none" fill-rule="evenodd">
        <g fill="#1AA8FF" fill-rule="nonzero">
            <path fill-opacity=".1" stroke="#1AA8FF" stroke-width="2" d="M12 1C5.935 1 1 5.935 1 12s4.935 11 11 11 11-4.936 11-11S18.065 1 12 1z"/>
            <path d="M17.506 7.826a.93.93 0 0 0-1.313.064l-5.67 6.243-2.74-2.785a.929.929 0 1 0-1.325 1.304l3.43 3.485a.928.928 0 0 0 .662.278l.018.001a.93.93 0 0 0 .67-.305l6.33-6.971a.93.93 0 0 0-.062-1.314z"/>
        </g>
    </g>
</svg>
