<svg xmlns="http://www.w3.org/2000/svg" width="24" height="24" viewBox="0 0 24 24">
    <g fill="none" fill-rule="evenodd">
        <g fill="#A7A7A7" fill-rule="nonzero">
            <path d="M12 0C5.383 0 0 5.383 0 12s5.383 12 12 12 12-5.384 12-12S18.617 0 12 0zm0 22.141C6.409 22.141 1.859 17.592 1.859 12S6.409 1.859 12 1.859 22.141 6.408 22.141 12 17.592 22.141 12 22.141z" opacity=".3"/>
            <path d="M16.648 10.987H12.93V7.269a.93.93 0 1 0-1.86 0v3.718H7.352a.93.93 0 1 0 0 1.859h3.718v3.718a.93.93 0 1 0 1.86 0v-3.718h3.718a.93.93 0 1 0 0-1.86z"/>
        </g>
    </g>
</svg>
