<svg xmlns="http://www.w3.org/2000/svg" width="16" height="16" viewBox="0 0 16 16">
    <g fill="none" fill-rule="evenodd">
        <g fill-rule="nonzero">
            <path fill="#FF552C" d="M7.969 12.288c.345 0 .625-.279.625-.623V6.55a.624.624 0 0 0-1.008-.493l-1.25.967a.623.623 0 0 0-.111.875.626.626 0 0 0 .877.11l.242-.187v3.843c0 .344.28.623.625.623z"/>
            <path fill="#FFE6D1" d="M14.71 10.35h-3.174l-1.078 1.435v3.304z"/>
            <path fill="#FF552C" d="M15.375 7.797c.345 0 .625-.279.625-.624v-3.43a2.5 2.5 0 0 0-2.5-2.495h-.813V.624a.624.624 0 0 0-1.25 0v.624H8.595V.624a.624.624 0 0 0-1.25 0v.624H4.53V.624a.624.624 0 0 0-1.25 0v.624H2.5A2.5 2.5 0 0 0 0 3.743v9.73a2.5 2.5 0 0 0 2.5 2.496h7.875a.627.627 0 0 0 .063-.003.623.623 0 0 0 .512-.188l4.875-5.053a.623.623 0 0 0-.45-1.056h-3a2.5 2.5 0 0 0-2.5 2.495v2.557H2.5c-.69 0-1.25-.56-1.25-1.247V3.743c0-.688.56-1.248 1.25-1.248h.781v.624a.624.624 0 0 0 1.25 0v-.624h2.813v.624a.624.624 0 0 0 1.25 0v-.624h2.844v.624a.624.624 0 0 0 1.25 0v-.624h.812c.69 0 1.25.56 1.25 1.248v3.43c0 .345.28.624.625.624zm-4.25 4.367c0-.688.56-1.248 1.25-1.248h1.53l-2.78 2.882v-1.634z"/>
        </g>
    </g>
</svg>
