<svg xmlns="http://www.w3.org/2000/svg" width="16" height="16" viewBox="0 0 16 16">
    <g fill="none" fill-rule="evenodd">
        <g fill-rule="nonzero">
            <path fill="#1AA8FF" d="M5.063 7.406H3.156a.625.625 0 1 0 0 1.25h1.907a.625.625 0 1 0 0-1.25zM5.063 9.844H3.156a.625.625 0 1 0 0 1.25h1.907a.625.625 0 1 0 0-1.25zM5.063 12.25H3.156a.625.625 0 1 0 0 1.25h1.907a.625.625 0 1 0 0-1.25zM9.125 12.25H7.219a.625.625 0 1 0 0 1.25h1.906a.625.625 0 1 0 0-1.25z"/>
            <path fill="#D1EEFF" d="M3 3h6v3H3zM12 9h3v6h-3z"/>
            <path fill="#1AA8FF" d="M9.125 2.5H3.156a.625.625 0 0 0-.625.625v2.469c0 .345.28.625.625.625h5.969c.345 0 .625-.28.625-.625V3.125a.625.625 0 0 0-.625-.625zM8.5 4.969H3.781V3.75H8.5v1.219z"/>
            <path fill="#1AA8FF" d="M15.375 14c.345 0 .625-.28.625-.625V8.812a.625.625 0 0 0-.625-.625H12.25V.625A.625.625 0 0 0 11.625 0h-11A.625.625 0 0 0 0 .625V13.5C0 14.878 1.121 16 2.5 16h11a2.492 2.492 0 0 0 1.768-.732c.472-.473.732-1.1.732-1.768a.625.625 0 1 0-1.25 0c0 .334-.13.648-.366.884s-.55.366-.884.366c-.69 0-1.25-.561-1.25-1.25V9.437h2.5v3.938c0 .345.28.625.625.625zM2.5 14.75c-.69 0-1.25-.56-1.25-1.25V1.25H11V13.5c0 .455.122.882.336 1.25H2.5z"/>
            <path fill="#1AA8FF" d="M9.125 7.406H7.219a.625.625 0 1 0 0 1.25h1.906a.625.625 0 1 0 0-1.25zM9.125 9.844H7.219a.625.625 0 1 0 0 1.25h1.906a.625.625 0 1 0 0-1.25z"/>
        </g>
    </g>
</svg>
