<svg xmlns="http://www.w3.org/2000/svg" width="19" height="16" viewBox="0 0 19 16">
    <g fill="none" fill-rule="evenodd">
        <g fill="#A7A7A7" fill-rule="nonzero">
            <path d="M9.58 13.383a2.339 2.339 0 0 1-1.468-.547L5.4 10.447a1.194 1.194 0 0 0-1.542-.074L0 13.209v1.84a.896.896 0 0 0 .921.946H14.58c.548 0 1.095-.398 1.095-.945v-4.827l-4.901 2.837c-.36.216-.774.328-1.194.323z"/>
            <circle cx="9.381" cy="7.462" r="1.095"/>
            <path d="M18.262 1.964a.92.92 0 0 0-.671-.373L4.03.023a1.144 1.144 0 0 0-.746.2 1.144 1.144 0 0 0-.373.646l-.224 1.94H14.58a2.14 2.14 0 0 1 2.09 2.066v8.782c0-.05.224-.1.324-.2a.846.846 0 0 0 .323-.671l1.17-10.1a.97.97 0 0 0-.225-.722z"/>
            <path d="M14.58 3.805H.922c-.547 0-.92.522-.92 1.07v7.09l3.283-2.388a2.19 2.19 0 0 1 2.762.124l2.737 2.388c.412.35 1.002.4 1.467.125l5.424-3.16v-4.18a1.144 1.144 0 0 0-1.095-1.07zm-5.2 5.747a2.09 2.09 0 1 1 0-4.18 2.09 2.09 0 0 1 0 4.18z"/>
        </g>
    </g>
</svg>
